<mxfile host="Electron" modified="2023-12-25T20:46:51.458Z" agent="Mozilla/5.0 (Macintosh; Intel Mac OS X 10_15_7) AppleWebKit/537.36 (KHTML, like Gecko) draw.io/22.1.2 Chrome/114.0.5735.289 Electron/25.9.4 Safari/537.36" etag="6GY6WK-4OG2_04XcLmh1" version="22.1.2" type="device">
  <diagram name="Page-1" id="qk4n_EFxPCu991qsyyxv">
    <mxGraphModel dx="1967" dy="826" grid="1" gridSize="10" guides="1" tooltips="1" connect="1" arrows="1" fold="1" page="1" pageScale="1" pageWidth="827" pageHeight="1169" math="0" shadow="0">
      <root>
        <mxCell id="0" />
        <mxCell id="1" parent="0" />
        <mxCell id="8kREFfntkFJNRA9oBOh0-10" style="rounded=0;orthogonalLoop=1;jettySize=auto;html=1;exitX=0.75;exitY=0.1;exitDx=0;exitDy=0;exitPerimeter=0;entryX=0;entryY=0.5;entryDx=0;entryDy=0;endArrow=none;endFill=0;" parent="1" source="8kREFfntkFJNRA9oBOh0-1" target="8kREFfntkFJNRA9oBOh0-3" edge="1">
          <mxGeometry relative="1" as="geometry" />
        </mxCell>
        <mxCell id="8kREFfntkFJNRA9oBOh0-53" style="rounded=0;orthogonalLoop=1;jettySize=auto;html=1;exitX=1;exitY=0.3333333333333333;exitDx=0;exitDy=0;exitPerimeter=0;entryX=0;entryY=0.5;entryDx=0;entryDy=0;endArrow=none;endFill=0;" parent="1" source="8kREFfntkFJNRA9oBOh0-1" target="8kREFfntkFJNRA9oBOh0-12" edge="1">
          <mxGeometry relative="1" as="geometry" />
        </mxCell>
        <mxCell id="8kREFfntkFJNRA9oBOh0-70" style="rounded=0;orthogonalLoop=1;jettySize=auto;html=1;exitX=1;exitY=1;exitDx=0;exitDy=0;exitPerimeter=0;entryX=0;entryY=0.5;entryDx=0;entryDy=0;endArrow=none;endFill=0;" parent="1" source="8kREFfntkFJNRA9oBOh0-1" target="8kREFfntkFJNRA9oBOh0-55" edge="1">
          <mxGeometry relative="1" as="geometry" />
        </mxCell>
        <mxCell id="8kREFfntkFJNRA9oBOh0-83" style="rounded=0;orthogonalLoop=1;jettySize=auto;html=1;exitX=1;exitY=0.3333333333333333;exitDx=0;exitDy=0;exitPerimeter=0;entryX=0;entryY=0.5;entryDx=0;entryDy=0;endArrow=none;endFill=0;" parent="1" source="8kREFfntkFJNRA9oBOh0-1" target="8kREFfntkFJNRA9oBOh0-72" edge="1">
          <mxGeometry relative="1" as="geometry" />
        </mxCell>
        <mxCell id="th8J_0gVv6HCJu3RjYva-9" style="rounded=0;orthogonalLoop=1;jettySize=auto;html=1;exitX=0;exitY=0.3333333333333333;exitDx=0;exitDy=0;exitPerimeter=0;entryX=0.5;entryY=1;entryDx=0;entryDy=0;" edge="1" parent="1" source="8kREFfntkFJNRA9oBOh0-1" target="th8J_0gVv6HCJu3RjYva-2">
          <mxGeometry relative="1" as="geometry" />
        </mxCell>
        <mxCell id="th8J_0gVv6HCJu3RjYva-18" style="rounded=0;orthogonalLoop=1;jettySize=auto;html=1;exitX=0;exitY=0.3333333333333333;exitDx=0;exitDy=0;exitPerimeter=0;entryX=0.5;entryY=0;entryDx=0;entryDy=0;" edge="1" parent="1" source="8kREFfntkFJNRA9oBOh0-1" target="th8J_0gVv6HCJu3RjYva-11">
          <mxGeometry relative="1" as="geometry">
            <mxPoint x="-360" y="520" as="targetPoint" />
          </mxGeometry>
        </mxCell>
        <mxCell id="th8J_0gVv6HCJu3RjYva-116" style="rounded=0;orthogonalLoop=1;jettySize=auto;html=1;exitX=0;exitY=1;exitDx=0;exitDy=0;exitPerimeter=0;entryX=0.5;entryY=0;entryDx=0;entryDy=0;" edge="1" parent="1" source="8kREFfntkFJNRA9oBOh0-1" target="th8J_0gVv6HCJu3RjYva-57">
          <mxGeometry relative="1" as="geometry" />
        </mxCell>
        <mxCell id="th8J_0gVv6HCJu3RjYva-125" style="edgeStyle=orthogonalEdgeStyle;rounded=0;orthogonalLoop=1;jettySize=auto;html=1;exitX=1;exitY=1;exitDx=0;exitDy=0;exitPerimeter=0;entryX=0;entryY=0.5;entryDx=0;entryDy=0;" edge="1" parent="1" source="8kREFfntkFJNRA9oBOh0-1" target="th8J_0gVv6HCJu3RjYva-118">
          <mxGeometry relative="1" as="geometry" />
        </mxCell>
        <mxCell id="th8J_0gVv6HCJu3RjYva-134" style="edgeStyle=orthogonalEdgeStyle;rounded=0;orthogonalLoop=1;jettySize=auto;html=1;exitX=0.5;exitY=0.5;exitDx=0;exitDy=0;exitPerimeter=0;entryX=0;entryY=0.5;entryDx=0;entryDy=0;" edge="1" parent="1" source="8kREFfntkFJNRA9oBOh0-1" target="th8J_0gVv6HCJu3RjYva-127">
          <mxGeometry relative="1" as="geometry" />
        </mxCell>
        <mxCell id="th8J_0gVv6HCJu3RjYva-149" style="edgeStyle=orthogonalEdgeStyle;rounded=0;orthogonalLoop=1;jettySize=auto;html=1;exitX=0.5;exitY=0.5;exitDx=0;exitDy=0;exitPerimeter=0;entryX=0.5;entryY=0;entryDx=0;entryDy=0;" edge="1" parent="1" source="8kREFfntkFJNRA9oBOh0-1" target="th8J_0gVv6HCJu3RjYva-136">
          <mxGeometry relative="1" as="geometry">
            <mxPoint x="30" y="740" as="targetPoint" />
            <Array as="points">
              <mxPoint x="-10" y="350" />
              <mxPoint x="-10" y="1010" />
              <mxPoint x="-510" y="1010" />
            </Array>
          </mxGeometry>
        </mxCell>
        <mxCell id="th8J_0gVv6HCJu3RjYva-150" style="edgeStyle=orthogonalEdgeStyle;rounded=0;orthogonalLoop=1;jettySize=auto;html=1;exitX=0;exitY=1;exitDx=0;exitDy=0;exitPerimeter=0;entryX=0.5;entryY=0;entryDx=0;entryDy=0;" edge="1" parent="1" source="8kREFfntkFJNRA9oBOh0-1" target="th8J_0gVv6HCJu3RjYva-142">
          <mxGeometry relative="1" as="geometry">
            <Array as="points">
              <mxPoint x="80" y="1190" />
              <mxPoint x="-670" y="1190" />
            </Array>
          </mxGeometry>
        </mxCell>
        <mxCell id="8kREFfntkFJNRA9oBOh0-1" value="Cinema employee" style="shape=umlActor;verticalLabelPosition=bottom;verticalAlign=top;html=1;outlineConnect=0;" parent="1" vertex="1">
          <mxGeometry x="80" y="320" width="30" height="60" as="geometry" />
        </mxCell>
        <mxCell id="8kREFfntkFJNRA9oBOh0-2" value="Add film" style="swimlane;whiteSpace=wrap;html=1;" parent="1" vertex="1">
          <mxGeometry x="160" y="40" width="890" height="120" as="geometry" />
        </mxCell>
        <mxCell id="8kREFfntkFJNRA9oBOh0-3" value="Add film" style="ellipse;whiteSpace=wrap;html=1;" parent="8kREFfntkFJNRA9oBOh0-2" vertex="1">
          <mxGeometry x="10" y="40" width="80" height="50" as="geometry" />
        </mxCell>
        <mxCell id="8kREFfntkFJNRA9oBOh0-4" value="Choose option &quot;Films menu&quot;" style="ellipse;whiteSpace=wrap;html=1;" parent="8kREFfntkFJNRA9oBOh0-2" vertex="1">
          <mxGeometry x="790" y="35" width="96" height="60" as="geometry" />
        </mxCell>
        <mxCell id="8kREFfntkFJNRA9oBOh0-5" value="&amp;lt;&amp;lt;include&amp;gt;&amp;gt;" style="html=1;verticalAlign=bottom;labelBackgroundColor=none;endArrow=open;endFill=0;dashed=1;rounded=0;exitX=0;exitY=0.5;exitDx=0;exitDy=0;entryX=1;entryY=0.5;entryDx=0;entryDy=0;" parent="8kREFfntkFJNRA9oBOh0-2" source="8kREFfntkFJNRA9oBOh0-4" target="8kREFfntkFJNRA9oBOh0-6" edge="1">
          <mxGeometry width="160" relative="1" as="geometry">
            <mxPoint x="233" y="345" as="sourcePoint" />
            <mxPoint x="293" y="245" as="targetPoint" />
          </mxGeometry>
        </mxCell>
        <mxCell id="8kREFfntkFJNRA9oBOh0-6" value="Choose option &quot;Add film&quot;" style="ellipse;whiteSpace=wrap;html=1;" parent="8kREFfntkFJNRA9oBOh0-2" vertex="1">
          <mxGeometry x="625" y="35" width="90" height="60" as="geometry" />
        </mxCell>
        <mxCell id="8kREFfntkFJNRA9oBOh0-7" value="&amp;lt;&amp;lt;include&amp;gt;&amp;gt;" style="html=1;verticalAlign=bottom;labelBackgroundColor=none;endArrow=open;endFill=0;dashed=1;rounded=0;exitX=0;exitY=0.5;exitDx=0;exitDy=0;entryX=1;entryY=0.5;entryDx=0;entryDy=0;" parent="8kREFfntkFJNRA9oBOh0-2" source="8kREFfntkFJNRA9oBOh0-6" target="8kREFfntkFJNRA9oBOh0-8" edge="1">
          <mxGeometry width="160" relative="1" as="geometry">
            <mxPoint x="485" y="255" as="sourcePoint" />
            <mxPoint x="403" y="255" as="targetPoint" />
          </mxGeometry>
        </mxCell>
        <mxCell id="8kREFfntkFJNRA9oBOh0-8" value="Fill in film title" style="ellipse;whiteSpace=wrap;html=1;" parent="8kREFfntkFJNRA9oBOh0-2" vertex="1">
          <mxGeometry x="460" y="37.5" width="80" height="55" as="geometry" />
        </mxCell>
        <mxCell id="8kREFfntkFJNRA9oBOh0-9" value="&amp;lt;&amp;lt;include&amp;gt;&amp;gt;" style="html=1;verticalAlign=bottom;labelBackgroundColor=none;endArrow=open;endFill=0;dashed=1;rounded=0;entryX=1;entryY=0.5;entryDx=0;entryDy=0;exitX=0;exitY=0.5;exitDx=0;exitDy=0;" parent="8kREFfntkFJNRA9oBOh0-2" source="th8J_0gVv6HCJu3RjYva-25" target="8kREFfntkFJNRA9oBOh0-3" edge="1">
          <mxGeometry width="160" relative="1" as="geometry">
            <mxPoint x="180" y="65" as="sourcePoint" />
            <mxPoint x="242.9999999999983" y="200" as="targetPoint" />
          </mxGeometry>
        </mxCell>
        <mxCell id="th8J_0gVv6HCJu3RjYva-23" value="Fill in actors" style="ellipse;whiteSpace=wrap;html=1;" vertex="1" parent="8kREFfntkFJNRA9oBOh0-2">
          <mxGeometry x="310" y="37.5" width="80" height="55" as="geometry" />
        </mxCell>
        <mxCell id="th8J_0gVv6HCJu3RjYva-24" value="&amp;lt;&amp;lt;include&amp;gt;&amp;gt;" style="html=1;verticalAlign=bottom;labelBackgroundColor=none;endArrow=open;endFill=0;dashed=1;rounded=0;entryX=1;entryY=0.5;entryDx=0;entryDy=0;exitX=0;exitY=0.5;exitDx=0;exitDy=0;" edge="1" parent="8kREFfntkFJNRA9oBOh0-2" source="8kREFfntkFJNRA9oBOh0-8" target="th8J_0gVv6HCJu3RjYva-23">
          <mxGeometry width="160" relative="1" as="geometry">
            <mxPoint x="300" y="75" as="sourcePoint" />
            <mxPoint x="210" y="75" as="targetPoint" />
          </mxGeometry>
        </mxCell>
        <mxCell id="th8J_0gVv6HCJu3RjYva-25" value="Fill in duration" style="ellipse;whiteSpace=wrap;html=1;" vertex="1" parent="8kREFfntkFJNRA9oBOh0-2">
          <mxGeometry x="160" y="37.5" width="80" height="55" as="geometry" />
        </mxCell>
        <mxCell id="th8J_0gVv6HCJu3RjYva-26" value="&amp;lt;&amp;lt;include&amp;gt;&amp;gt;" style="html=1;verticalAlign=bottom;labelBackgroundColor=none;endArrow=open;endFill=0;dashed=1;rounded=0;entryX=1;entryY=0.5;entryDx=0;entryDy=0;exitX=0;exitY=0.5;exitDx=0;exitDy=0;" edge="1" parent="8kREFfntkFJNRA9oBOh0-2" source="th8J_0gVv6HCJu3RjYva-23" target="th8J_0gVv6HCJu3RjYva-25">
          <mxGeometry width="160" relative="1" as="geometry">
            <mxPoint x="470" y="75" as="sourcePoint" />
            <mxPoint x="400" y="75" as="targetPoint" />
          </mxGeometry>
        </mxCell>
        <mxCell id="8kREFfntkFJNRA9oBOh0-11" value="Sell tickets for film" style="swimlane;whiteSpace=wrap;html=1;" parent="1" vertex="1">
          <mxGeometry x="160" y="440" width="1080" height="130" as="geometry" />
        </mxCell>
        <mxCell id="8kREFfntkFJNRA9oBOh0-12" value="Sell tickets" style="ellipse;whiteSpace=wrap;html=1;" parent="8kREFfntkFJNRA9oBOh0-11" vertex="1">
          <mxGeometry x="10" y="35" width="90" height="60" as="geometry" />
        </mxCell>
        <mxCell id="8kREFfntkFJNRA9oBOh0-13" value="Choose seats" style="ellipse;whiteSpace=wrap;html=1;" parent="8kREFfntkFJNRA9oBOh0-11" vertex="1">
          <mxGeometry x="173.5" y="32.5" width="80" height="62.5" as="geometry" />
        </mxCell>
        <mxCell id="8kREFfntkFJNRA9oBOh0-14" value="&amp;lt;&amp;lt;include&amp;gt;&amp;gt;" style="html=1;verticalAlign=bottom;labelBackgroundColor=none;endArrow=open;endFill=0;dashed=1;rounded=0;exitX=0;exitY=0.5;exitDx=0;exitDy=0;entryX=1;entryY=0.5;entryDx=0;entryDy=0;" parent="8kREFfntkFJNRA9oBOh0-11" source="8kREFfntkFJNRA9oBOh0-13" target="8kREFfntkFJNRA9oBOh0-12" edge="1">
          <mxGeometry width="160" relative="1" as="geometry">
            <mxPoint x="233" y="345" as="sourcePoint" />
            <mxPoint x="160" y="140" as="targetPoint" />
          </mxGeometry>
        </mxCell>
        <mxCell id="8kREFfntkFJNRA9oBOh0-15" value="Choose option &quot;Sell ticket&quot;" style="ellipse;whiteSpace=wrap;html=1;" parent="8kREFfntkFJNRA9oBOh0-11" vertex="1">
          <mxGeometry x="650" y="37.5" width="90" height="62.5" as="geometry" />
        </mxCell>
        <mxCell id="8kREFfntkFJNRA9oBOh0-16" value="&amp;lt;&amp;lt;include&amp;gt;&amp;gt;" style="html=1;verticalAlign=bottom;labelBackgroundColor=none;endArrow=open;endFill=0;dashed=1;rounded=0;exitX=0;exitY=0.5;exitDx=0;exitDy=0;entryX=1;entryY=0.5;entryDx=0;entryDy=0;" parent="8kREFfntkFJNRA9oBOh0-11" source="8kREFfntkFJNRA9oBOh0-15" target="8kREFfntkFJNRA9oBOh0-17" edge="1">
          <mxGeometry width="160" relative="1" as="geometry">
            <mxPoint x="710" y="255" as="sourcePoint" />
            <mxPoint x="515" y="120" as="targetPoint" />
          </mxGeometry>
        </mxCell>
        <mxCell id="8kREFfntkFJNRA9oBOh0-17" value="Choose film session" style="ellipse;whiteSpace=wrap;html=1;" parent="8kREFfntkFJNRA9oBOh0-11" vertex="1">
          <mxGeometry x="500" y="37.5" width="90" height="62.5" as="geometry" />
        </mxCell>
        <mxCell id="8kREFfntkFJNRA9oBOh0-18" value="&amp;lt;&amp;lt;include&amp;gt;&amp;gt;" style="html=1;verticalAlign=bottom;labelBackgroundColor=none;endArrow=open;endFill=0;dashed=1;rounded=0;exitX=0;exitY=0.5;exitDx=0;exitDy=0;entryX=1;entryY=0.5;entryDx=0;entryDy=0;" parent="8kREFfntkFJNRA9oBOh0-11" source="8kREFfntkFJNRA9oBOh0-17" target="8kREFfntkFJNRA9oBOh0-19" edge="1">
          <mxGeometry width="160" relative="1" as="geometry">
            <mxPoint x="213" y="315.0000000000001" as="sourcePoint" />
            <mxPoint x="120" y="110" as="targetPoint" />
          </mxGeometry>
        </mxCell>
        <mxCell id="8kREFfntkFJNRA9oBOh0-19" value="Enter tickets count" style="ellipse;whiteSpace=wrap;html=1;" parent="8kREFfntkFJNRA9oBOh0-11" vertex="1">
          <mxGeometry x="330" y="30" width="100" height="70" as="geometry" />
        </mxCell>
        <mxCell id="8kREFfntkFJNRA9oBOh0-20" value="&amp;lt;&amp;lt;include&amp;gt;&amp;gt;" style="html=1;verticalAlign=bottom;labelBackgroundColor=none;endArrow=open;endFill=0;dashed=1;rounded=0;exitX=0;exitY=0.5;exitDx=0;exitDy=0;entryX=1;entryY=0.5;entryDx=0;entryDy=0;" parent="8kREFfntkFJNRA9oBOh0-11" source="8kREFfntkFJNRA9oBOh0-19" target="8kREFfntkFJNRA9oBOh0-13" edge="1">
          <mxGeometry width="160" relative="1" as="geometry">
            <mxPoint x="370" y="75" as="sourcePoint" />
            <mxPoint x="364" y="155" as="targetPoint" />
          </mxGeometry>
        </mxCell>
        <mxCell id="8kREFfntkFJNRA9oBOh0-25" value="Choose film" style="ellipse;whiteSpace=wrap;html=1;" parent="8kREFfntkFJNRA9oBOh0-11" vertex="1">
          <mxGeometry x="800" y="37.5" width="100" height="62.5" as="geometry" />
        </mxCell>
        <mxCell id="8kREFfntkFJNRA9oBOh0-26" value="&amp;lt;&amp;lt;include&amp;gt;&amp;gt;" style="html=1;verticalAlign=bottom;labelBackgroundColor=none;endArrow=open;endFill=0;dashed=1;rounded=0;exitX=0;exitY=0.5;exitDx=0;exitDy=0;entryX=1;entryY=0.5;entryDx=0;entryDy=0;" parent="8kREFfntkFJNRA9oBOh0-11" source="8kREFfntkFJNRA9oBOh0-25" target="8kREFfntkFJNRA9oBOh0-15" edge="1">
          <mxGeometry width="160" relative="1" as="geometry">
            <mxPoint x="805" y="120" as="sourcePoint" />
            <mxPoint x="735" y="120" as="targetPoint" />
          </mxGeometry>
        </mxCell>
        <mxCell id="8kREFfntkFJNRA9oBOh0-62" value="&amp;lt;&amp;lt;include&amp;gt;&amp;gt;" style="html=1;verticalAlign=bottom;labelBackgroundColor=none;endArrow=open;endFill=0;dashed=1;rounded=0;entryX=1;entryY=0.5;entryDx=0;entryDy=0;exitX=0;exitY=0.5;exitDx=0;exitDy=0;" parent="8kREFfntkFJNRA9oBOh0-11" source="8kREFfntkFJNRA9oBOh0-63" target="8kREFfntkFJNRA9oBOh0-25" edge="1">
          <mxGeometry width="160" relative="1" as="geometry">
            <mxPoint x="970" y="65" as="sourcePoint" />
            <mxPoint x="745" y="75" as="targetPoint" />
          </mxGeometry>
        </mxCell>
        <mxCell id="8kREFfntkFJNRA9oBOh0-63" value="Choose option &quot;Sessions menu&quot;" style="ellipse;whiteSpace=wrap;html=1;" parent="8kREFfntkFJNRA9oBOh0-11" vertex="1">
          <mxGeometry x="970" y="40" width="100" height="60" as="geometry" />
        </mxCell>
        <mxCell id="8kREFfntkFJNRA9oBOh0-54" value="Return tickets" style="swimlane;whiteSpace=wrap;html=1;" parent="1" vertex="1">
          <mxGeometry x="160" y="620" width="880" height="140" as="geometry">
            <mxRectangle x="160" y="680" width="120" height="30" as="alternateBounds" />
          </mxGeometry>
        </mxCell>
        <mxCell id="8kREFfntkFJNRA9oBOh0-55" value="Return tickets" style="ellipse;whiteSpace=wrap;html=1;" parent="8kREFfntkFJNRA9oBOh0-54" vertex="1">
          <mxGeometry x="10" y="40" width="80" height="50" as="geometry" />
        </mxCell>
        <mxCell id="8kREFfntkFJNRA9oBOh0-56" value="Choose film" style="ellipse;whiteSpace=wrap;html=1;" parent="8kREFfntkFJNRA9oBOh0-54" vertex="1">
          <mxGeometry x="580" y="35" width="96" height="60" as="geometry" />
        </mxCell>
        <mxCell id="8kREFfntkFJNRA9oBOh0-57" value="&amp;lt;&amp;lt;include&amp;gt;&amp;gt;" style="html=1;verticalAlign=bottom;labelBackgroundColor=none;endArrow=open;endFill=0;dashed=1;rounded=0;exitX=0;exitY=0.5;exitDx=0;exitDy=0;entryX=1;entryY=0.5;entryDx=0;entryDy=0;" parent="8kREFfntkFJNRA9oBOh0-54" source="8kREFfntkFJNRA9oBOh0-56" target="th8J_0gVv6HCJu3RjYva-33" edge="1">
          <mxGeometry width="160" relative="1" as="geometry">
            <mxPoint x="233" y="345" as="sourcePoint" />
            <mxPoint x="470" y="90" as="targetPoint" />
          </mxGeometry>
        </mxCell>
        <mxCell id="8kREFfntkFJNRA9oBOh0-58" value="Enter tickets to return" style="ellipse;whiteSpace=wrap;html=1;" parent="8kREFfntkFJNRA9oBOh0-54" vertex="1">
          <mxGeometry x="170" y="35" width="90" height="60" as="geometry" />
        </mxCell>
        <mxCell id="8kREFfntkFJNRA9oBOh0-59" value="&amp;lt;&amp;lt;include&amp;gt;&amp;gt;" style="html=1;verticalAlign=bottom;labelBackgroundColor=none;endArrow=open;endFill=0;dashed=1;rounded=0;exitX=0;exitY=0.5;exitDx=0;exitDy=0;entryX=1;entryY=0.5;entryDx=0;entryDy=0;" parent="8kREFfntkFJNRA9oBOh0-54" source="8kREFfntkFJNRA9oBOh0-58" target="8kREFfntkFJNRA9oBOh0-55" edge="1">
          <mxGeometry width="160" relative="1" as="geometry">
            <mxPoint x="485" y="255" as="sourcePoint" />
            <mxPoint x="240" y="65" as="targetPoint" />
          </mxGeometry>
        </mxCell>
        <mxCell id="th8J_0gVv6HCJu3RjYva-31" value="Choose option &quot;Sessions menu&quot;" style="ellipse;whiteSpace=wrap;html=1;" vertex="1" parent="8kREFfntkFJNRA9oBOh0-54">
          <mxGeometry x="770" y="35" width="96" height="60" as="geometry" />
        </mxCell>
        <mxCell id="th8J_0gVv6HCJu3RjYva-32" value="&amp;lt;&amp;lt;include&amp;gt;&amp;gt;" style="html=1;verticalAlign=bottom;labelBackgroundColor=none;endArrow=open;endFill=0;dashed=1;rounded=0;exitX=0;exitY=0.5;exitDx=0;exitDy=0;entryX=1;entryY=0.5;entryDx=0;entryDy=0;" edge="1" parent="8kREFfntkFJNRA9oBOh0-54" source="th8J_0gVv6HCJu3RjYva-31" target="8kREFfntkFJNRA9oBOh0-56">
          <mxGeometry width="160" relative="1" as="geometry">
            <mxPoint x="540" y="110" as="sourcePoint" />
            <mxPoint x="440" y="110" as="targetPoint" />
          </mxGeometry>
        </mxCell>
        <mxCell id="th8J_0gVv6HCJu3RjYva-33" value="Choose option &quot;return tickets&quot;" style="ellipse;whiteSpace=wrap;html=1;" vertex="1" parent="8kREFfntkFJNRA9oBOh0-54">
          <mxGeometry x="360" y="35" width="90" height="60" as="geometry" />
        </mxCell>
        <mxCell id="th8J_0gVv6HCJu3RjYva-35" value="&amp;lt;&amp;lt;include&amp;gt;&amp;gt;" style="html=1;verticalAlign=bottom;labelBackgroundColor=none;endArrow=open;endFill=0;dashed=1;rounded=0;exitX=0;exitY=0.5;exitDx=0;exitDy=0;entryX=1;entryY=0.5;entryDx=0;entryDy=0;" edge="1" parent="8kREFfntkFJNRA9oBOh0-54" source="th8J_0gVv6HCJu3RjYva-33" target="8kREFfntkFJNRA9oBOh0-58">
          <mxGeometry width="160" relative="1" as="geometry">
            <mxPoint x="590" y="75" as="sourcePoint" />
            <mxPoint x="410" y="80" as="targetPoint" />
          </mxGeometry>
        </mxCell>
        <mxCell id="8kREFfntkFJNRA9oBOh0-71" value="Add session" style="swimlane;whiteSpace=wrap;html=1;" parent="1" vertex="1">
          <mxGeometry x="160" y="200" width="920" height="120" as="geometry" />
        </mxCell>
        <mxCell id="8kREFfntkFJNRA9oBOh0-72" value="Add session" style="ellipse;whiteSpace=wrap;html=1;" parent="8kREFfntkFJNRA9oBOh0-71" vertex="1">
          <mxGeometry x="10" y="40" width="80" height="50" as="geometry" />
        </mxCell>
        <mxCell id="8kREFfntkFJNRA9oBOh0-73" value="Choose option&lt;br&gt;&quot;Add session&quot;" style="ellipse;whiteSpace=wrap;html=1;" parent="8kREFfntkFJNRA9oBOh0-71" vertex="1">
          <mxGeometry x="490" y="35" width="96" height="60" as="geometry" />
        </mxCell>
        <mxCell id="8kREFfntkFJNRA9oBOh0-74" value="&amp;lt;&amp;lt;include&amp;gt;&amp;gt;" style="html=1;verticalAlign=bottom;labelBackgroundColor=none;endArrow=open;endFill=0;dashed=1;rounded=0;exitX=0;exitY=0.5;exitDx=0;exitDy=0;entryX=1;entryY=0.5;entryDx=0;entryDy=0;" parent="8kREFfntkFJNRA9oBOh0-71" source="8kREFfntkFJNRA9oBOh0-73" target="8kREFfntkFJNRA9oBOh0-75" edge="1">
          <mxGeometry width="160" relative="1" as="geometry">
            <mxPoint x="233" y="345" as="sourcePoint" />
            <mxPoint x="293" y="245" as="targetPoint" />
          </mxGeometry>
        </mxCell>
        <mxCell id="8kREFfntkFJNRA9oBOh0-75" value="Choose start time" style="ellipse;whiteSpace=wrap;html=1;" parent="8kREFfntkFJNRA9oBOh0-71" vertex="1">
          <mxGeometry x="325" y="35" width="90" height="60" as="geometry" />
        </mxCell>
        <mxCell id="8kREFfntkFJNRA9oBOh0-76" value="&amp;lt;&amp;lt;include&amp;gt;&amp;gt;" style="html=1;verticalAlign=bottom;labelBackgroundColor=none;endArrow=open;endFill=0;dashed=1;rounded=0;exitX=0;exitY=0.5;exitDx=0;exitDy=0;entryX=1;entryY=0.5;entryDx=0;entryDy=0;" parent="8kREFfntkFJNRA9oBOh0-71" source="8kREFfntkFJNRA9oBOh0-75" target="8kREFfntkFJNRA9oBOh0-77" edge="1">
          <mxGeometry width="160" relative="1" as="geometry">
            <mxPoint x="485" y="255" as="sourcePoint" />
            <mxPoint x="403" y="255" as="targetPoint" />
          </mxGeometry>
        </mxCell>
        <mxCell id="8kREFfntkFJNRA9oBOh0-77" value="Choose price" style="ellipse;whiteSpace=wrap;html=1;" parent="8kREFfntkFJNRA9oBOh0-71" vertex="1">
          <mxGeometry x="160" y="37.5" width="80" height="55" as="geometry" />
        </mxCell>
        <mxCell id="8kREFfntkFJNRA9oBOh0-78" value="&amp;lt;&amp;lt;include&amp;gt;&amp;gt;" style="html=1;verticalAlign=bottom;labelBackgroundColor=none;endArrow=open;endFill=0;dashed=1;rounded=0;exitX=0;exitY=0.5;exitDx=0;exitDy=0;entryX=1;entryY=0.5;entryDx=0;entryDy=0;" parent="8kREFfntkFJNRA9oBOh0-71" source="8kREFfntkFJNRA9oBOh0-77" target="8kREFfntkFJNRA9oBOh0-72" edge="1">
          <mxGeometry width="160" relative="1" as="geometry">
            <mxPoint x="213" y="315.0000000000001" as="sourcePoint" />
            <mxPoint x="242.9999999999983" y="200" as="targetPoint" />
          </mxGeometry>
        </mxCell>
        <mxCell id="th8J_0gVv6HCJu3RjYva-27" value="Choose option&lt;br&gt;&quot;Sessions menu&quot;" style="ellipse;whiteSpace=wrap;html=1;" vertex="1" parent="8kREFfntkFJNRA9oBOh0-71">
          <mxGeometry x="820" y="35" width="96" height="60" as="geometry" />
        </mxCell>
        <mxCell id="th8J_0gVv6HCJu3RjYva-28" value="Choose film" style="ellipse;whiteSpace=wrap;html=1;" vertex="1" parent="8kREFfntkFJNRA9oBOh0-71">
          <mxGeometry x="650" y="35" width="96" height="60" as="geometry" />
        </mxCell>
        <mxCell id="th8J_0gVv6HCJu3RjYva-29" value="&amp;lt;&amp;lt;include&amp;gt;&amp;gt;" style="html=1;verticalAlign=bottom;labelBackgroundColor=none;endArrow=open;endFill=0;dashed=1;rounded=0;exitX=0;exitY=0.5;exitDx=0;exitDy=0;entryX=1;entryY=0.5;entryDx=0;entryDy=0;" edge="1" parent="8kREFfntkFJNRA9oBOh0-71" source="th8J_0gVv6HCJu3RjYva-28" target="8kREFfntkFJNRA9oBOh0-73">
          <mxGeometry width="160" relative="1" as="geometry">
            <mxPoint x="665" y="110" as="sourcePoint" />
            <mxPoint x="590" y="110" as="targetPoint" />
          </mxGeometry>
        </mxCell>
        <mxCell id="th8J_0gVv6HCJu3RjYva-30" value="&amp;lt;&amp;lt;include&amp;gt;&amp;gt;" style="html=1;verticalAlign=bottom;labelBackgroundColor=none;endArrow=open;endFill=0;dashed=1;rounded=0;exitX=0;exitY=0.5;exitDx=0;exitDy=0;entryX=1;entryY=0.5;entryDx=0;entryDy=0;" edge="1" parent="8kREFfntkFJNRA9oBOh0-71" source="th8J_0gVv6HCJu3RjYva-27" target="th8J_0gVv6HCJu3RjYva-28">
          <mxGeometry width="160" relative="1" as="geometry">
            <mxPoint x="834" y="95" as="sourcePoint" />
            <mxPoint x="770" y="95" as="targetPoint" />
          </mxGeometry>
        </mxCell>
        <mxCell id="th8J_0gVv6HCJu3RjYva-1" value="Login" style="swimlane;whiteSpace=wrap;html=1;" vertex="1" parent="1">
          <mxGeometry x="-640" y="40" width="600" height="120" as="geometry" />
        </mxCell>
        <mxCell id="th8J_0gVv6HCJu3RjYva-2" value="Proceed to main menu" style="ellipse;whiteSpace=wrap;html=1;" vertex="1" parent="th8J_0gVv6HCJu3RjYva-1">
          <mxGeometry x="10" y="40" width="80" height="50" as="geometry" />
        </mxCell>
        <mxCell id="th8J_0gVv6HCJu3RjYva-3" value="Run program" style="ellipse;whiteSpace=wrap;html=1;" vertex="1" parent="th8J_0gVv6HCJu3RjYva-1">
          <mxGeometry x="490" y="35" width="96" height="60" as="geometry" />
        </mxCell>
        <mxCell id="th8J_0gVv6HCJu3RjYva-4" value="&amp;lt;&amp;lt;include&amp;gt;&amp;gt;" style="html=1;verticalAlign=bottom;labelBackgroundColor=none;endArrow=open;endFill=0;dashed=1;rounded=0;exitX=0;exitY=0.5;exitDx=0;exitDy=0;entryX=1;entryY=0.5;entryDx=0;entryDy=0;" edge="1" parent="th8J_0gVv6HCJu3RjYva-1" source="th8J_0gVv6HCJu3RjYva-3" target="th8J_0gVv6HCJu3RjYva-5">
          <mxGeometry width="160" relative="1" as="geometry">
            <mxPoint x="233" y="345" as="sourcePoint" />
            <mxPoint x="293" y="245" as="targetPoint" />
          </mxGeometry>
        </mxCell>
        <mxCell id="th8J_0gVv6HCJu3RjYva-5" value="Choose&lt;br&gt;login option" style="ellipse;whiteSpace=wrap;html=1;" vertex="1" parent="th8J_0gVv6HCJu3RjYva-1">
          <mxGeometry x="325" y="35" width="90" height="60" as="geometry" />
        </mxCell>
        <mxCell id="th8J_0gVv6HCJu3RjYva-6" value="&amp;lt;&amp;lt;include&amp;gt;&amp;gt;" style="html=1;verticalAlign=bottom;labelBackgroundColor=none;endArrow=open;endFill=0;dashed=1;rounded=0;exitX=0;exitY=0.5;exitDx=0;exitDy=0;entryX=1;entryY=0.5;entryDx=0;entryDy=0;" edge="1" parent="th8J_0gVv6HCJu3RjYva-1" source="th8J_0gVv6HCJu3RjYva-5" target="th8J_0gVv6HCJu3RjYva-7">
          <mxGeometry width="160" relative="1" as="geometry">
            <mxPoint x="485" y="255" as="sourcePoint" />
            <mxPoint x="403" y="255" as="targetPoint" />
          </mxGeometry>
        </mxCell>
        <mxCell id="th8J_0gVv6HCJu3RjYva-7" value="Enter login&lt;br&gt;data" style="ellipse;whiteSpace=wrap;html=1;" vertex="1" parent="th8J_0gVv6HCJu3RjYva-1">
          <mxGeometry x="160" y="37.5" width="80" height="55" as="geometry" />
        </mxCell>
        <mxCell id="th8J_0gVv6HCJu3RjYva-8" value="&amp;lt;&amp;lt;include&amp;gt;&amp;gt;" style="html=1;verticalAlign=bottom;labelBackgroundColor=none;endArrow=open;endFill=0;dashed=1;rounded=0;exitX=0;exitY=0.5;exitDx=0;exitDy=0;entryX=1;entryY=0.5;entryDx=0;entryDy=0;" edge="1" parent="th8J_0gVv6HCJu3RjYva-1" source="th8J_0gVv6HCJu3RjYva-7" target="th8J_0gVv6HCJu3RjYva-2">
          <mxGeometry width="160" relative="1" as="geometry">
            <mxPoint x="213" y="315.0000000000001" as="sourcePoint" />
            <mxPoint x="242.9999999999983" y="200" as="targetPoint" />
          </mxGeometry>
        </mxCell>
        <mxCell id="th8J_0gVv6HCJu3RjYva-10" value="Registration" style="swimlane;whiteSpace=wrap;html=1;" vertex="1" parent="1">
          <mxGeometry x="-640" y="320" width="600" height="120" as="geometry" />
        </mxCell>
        <mxCell id="th8J_0gVv6HCJu3RjYva-11" value="Proceed to main menu" style="ellipse;whiteSpace=wrap;html=1;" vertex="1" parent="th8J_0gVv6HCJu3RjYva-10">
          <mxGeometry x="10" y="40" width="80" height="50" as="geometry" />
        </mxCell>
        <mxCell id="th8J_0gVv6HCJu3RjYva-12" value="Run program" style="ellipse;whiteSpace=wrap;html=1;" vertex="1" parent="th8J_0gVv6HCJu3RjYva-10">
          <mxGeometry x="490" y="35" width="96" height="60" as="geometry" />
        </mxCell>
        <mxCell id="th8J_0gVv6HCJu3RjYva-13" value="&amp;lt;&amp;lt;include&amp;gt;&amp;gt;" style="html=1;verticalAlign=bottom;labelBackgroundColor=none;endArrow=open;endFill=0;dashed=1;rounded=0;exitX=0;exitY=0.5;exitDx=0;exitDy=0;entryX=1;entryY=0.5;entryDx=0;entryDy=0;" edge="1" parent="th8J_0gVv6HCJu3RjYva-10" source="th8J_0gVv6HCJu3RjYva-12" target="th8J_0gVv6HCJu3RjYva-14">
          <mxGeometry width="160" relative="1" as="geometry">
            <mxPoint x="233" y="345" as="sourcePoint" />
            <mxPoint x="293" y="245" as="targetPoint" />
          </mxGeometry>
        </mxCell>
        <mxCell id="th8J_0gVv6HCJu3RjYva-14" value="Choose&lt;br&gt;register option" style="ellipse;whiteSpace=wrap;html=1;" vertex="1" parent="th8J_0gVv6HCJu3RjYva-10">
          <mxGeometry x="325" y="35" width="90" height="60" as="geometry" />
        </mxCell>
        <mxCell id="th8J_0gVv6HCJu3RjYva-15" value="&amp;lt;&amp;lt;include&amp;gt;&amp;gt;" style="html=1;verticalAlign=bottom;labelBackgroundColor=none;endArrow=open;endFill=0;dashed=1;rounded=0;exitX=0;exitY=0.5;exitDx=0;exitDy=0;entryX=1;entryY=0.5;entryDx=0;entryDy=0;" edge="1" parent="th8J_0gVv6HCJu3RjYva-10" source="th8J_0gVv6HCJu3RjYva-14" target="th8J_0gVv6HCJu3RjYva-16">
          <mxGeometry width="160" relative="1" as="geometry">
            <mxPoint x="485" y="255" as="sourcePoint" />
            <mxPoint x="403" y="255" as="targetPoint" />
          </mxGeometry>
        </mxCell>
        <mxCell id="th8J_0gVv6HCJu3RjYva-16" value="Enter register&lt;br&gt;data" style="ellipse;whiteSpace=wrap;html=1;" vertex="1" parent="th8J_0gVv6HCJu3RjYva-10">
          <mxGeometry x="160" y="37.5" width="80" height="55" as="geometry" />
        </mxCell>
        <mxCell id="th8J_0gVv6HCJu3RjYva-17" value="&amp;lt;&amp;lt;include&amp;gt;&amp;gt;" style="html=1;verticalAlign=bottom;labelBackgroundColor=none;endArrow=open;endFill=0;dashed=1;rounded=0;exitX=0;exitY=0.5;exitDx=0;exitDy=0;entryX=1;entryY=0.5;entryDx=0;entryDy=0;" edge="1" parent="th8J_0gVv6HCJu3RjYva-10" source="th8J_0gVv6HCJu3RjYva-16" target="th8J_0gVv6HCJu3RjYva-11">
          <mxGeometry width="160" relative="1" as="geometry">
            <mxPoint x="213" y="315.0000000000001" as="sourcePoint" />
            <mxPoint x="242.9999999999983" y="200" as="targetPoint" />
          </mxGeometry>
        </mxCell>
        <mxCell id="th8J_0gVv6HCJu3RjYva-46" value="tag visitors" style="swimlane;whiteSpace=wrap;html=1;" vertex="1" parent="1">
          <mxGeometry x="160" y="820" width="880" height="140" as="geometry">
            <mxRectangle x="160" y="680" width="120" height="30" as="alternateBounds" />
          </mxGeometry>
        </mxCell>
        <mxCell id="th8J_0gVv6HCJu3RjYva-47" value="Tag visitor" style="ellipse;whiteSpace=wrap;html=1;" vertex="1" parent="th8J_0gVv6HCJu3RjYva-46">
          <mxGeometry x="10" y="40" width="80" height="50" as="geometry" />
        </mxCell>
        <mxCell id="th8J_0gVv6HCJu3RjYva-48" value="Choose film" style="ellipse;whiteSpace=wrap;html=1;" vertex="1" parent="th8J_0gVv6HCJu3RjYva-46">
          <mxGeometry x="580" y="35" width="96" height="60" as="geometry" />
        </mxCell>
        <mxCell id="th8J_0gVv6HCJu3RjYva-49" value="&amp;lt;&amp;lt;include&amp;gt;&amp;gt;" style="html=1;verticalAlign=bottom;labelBackgroundColor=none;endArrow=open;endFill=0;dashed=1;rounded=0;exitX=0;exitY=0.5;exitDx=0;exitDy=0;entryX=1;entryY=0.5;entryDx=0;entryDy=0;" edge="1" parent="th8J_0gVv6HCJu3RjYva-46" source="th8J_0gVv6HCJu3RjYva-48" target="th8J_0gVv6HCJu3RjYva-54">
          <mxGeometry width="160" relative="1" as="geometry">
            <mxPoint x="233" y="345" as="sourcePoint" />
            <mxPoint x="470" y="90" as="targetPoint" />
          </mxGeometry>
        </mxCell>
        <mxCell id="th8J_0gVv6HCJu3RjYva-50" value="Enter seats to tag" style="ellipse;whiteSpace=wrap;html=1;" vertex="1" parent="th8J_0gVv6HCJu3RjYva-46">
          <mxGeometry x="170" y="35" width="90" height="60" as="geometry" />
        </mxCell>
        <mxCell id="th8J_0gVv6HCJu3RjYva-51" value="&amp;lt;&amp;lt;include&amp;gt;&amp;gt;" style="html=1;verticalAlign=bottom;labelBackgroundColor=none;endArrow=open;endFill=0;dashed=1;rounded=0;exitX=0;exitY=0.5;exitDx=0;exitDy=0;entryX=1;entryY=0.5;entryDx=0;entryDy=0;" edge="1" parent="th8J_0gVv6HCJu3RjYva-46" source="th8J_0gVv6HCJu3RjYva-50" target="th8J_0gVv6HCJu3RjYva-47">
          <mxGeometry width="160" relative="1" as="geometry">
            <mxPoint x="485" y="255" as="sourcePoint" />
            <mxPoint x="240" y="65" as="targetPoint" />
          </mxGeometry>
        </mxCell>
        <mxCell id="th8J_0gVv6HCJu3RjYva-52" value="Choose option &quot;Sessions menu&quot;" style="ellipse;whiteSpace=wrap;html=1;" vertex="1" parent="th8J_0gVv6HCJu3RjYva-46">
          <mxGeometry x="770" y="35" width="96" height="60" as="geometry" />
        </mxCell>
        <mxCell id="th8J_0gVv6HCJu3RjYva-53" value="&amp;lt;&amp;lt;include&amp;gt;&amp;gt;" style="html=1;verticalAlign=bottom;labelBackgroundColor=none;endArrow=open;endFill=0;dashed=1;rounded=0;exitX=0;exitY=0.5;exitDx=0;exitDy=0;entryX=1;entryY=0.5;entryDx=0;entryDy=0;" edge="1" parent="th8J_0gVv6HCJu3RjYva-46" source="th8J_0gVv6HCJu3RjYva-52" target="th8J_0gVv6HCJu3RjYva-48">
          <mxGeometry width="160" relative="1" as="geometry">
            <mxPoint x="540" y="110" as="sourcePoint" />
            <mxPoint x="440" y="110" as="targetPoint" />
          </mxGeometry>
        </mxCell>
        <mxCell id="th8J_0gVv6HCJu3RjYva-54" value="Choose option &quot;tag visitors&quot;" style="ellipse;whiteSpace=wrap;html=1;" vertex="1" parent="th8J_0gVv6HCJu3RjYva-46">
          <mxGeometry x="370" y="35" width="90" height="60" as="geometry" />
        </mxCell>
        <mxCell id="th8J_0gVv6HCJu3RjYva-55" value="&amp;lt;&amp;lt;include&amp;gt;&amp;gt;" style="html=1;verticalAlign=bottom;labelBackgroundColor=none;endArrow=open;endFill=0;dashed=1;rounded=0;exitX=0;exitY=0.5;exitDx=0;exitDy=0;entryX=1;entryY=0.5;entryDx=0;entryDy=0;" edge="1" parent="th8J_0gVv6HCJu3RjYva-46" source="th8J_0gVv6HCJu3RjYva-54" target="th8J_0gVv6HCJu3RjYva-50">
          <mxGeometry width="160" relative="1" as="geometry">
            <mxPoint x="590" y="75" as="sourcePoint" />
            <mxPoint x="410" y="80" as="targetPoint" />
          </mxGeometry>
        </mxCell>
        <mxCell id="th8J_0gVv6HCJu3RjYva-56" value="Edit film" style="swimlane;whiteSpace=wrap;html=1;" vertex="1" parent="1">
          <mxGeometry x="-550" y="560" width="410" height="410" as="geometry" />
        </mxCell>
        <mxCell id="th8J_0gVv6HCJu3RjYva-57" value="Edit film" style="ellipse;whiteSpace=wrap;html=1;" vertex="1" parent="th8J_0gVv6HCJu3RjYva-56">
          <mxGeometry x="10" y="40" width="80" height="50" as="geometry" />
        </mxCell>
        <mxCell id="th8J_0gVv6HCJu3RjYva-63" value="&amp;lt;&amp;lt;include&amp;gt;&amp;gt;" style="html=1;verticalAlign=bottom;labelBackgroundColor=none;endArrow=open;endFill=0;dashed=1;rounded=0;entryX=1;entryY=0.5;entryDx=0;entryDy=0;exitX=0;exitY=0.5;exitDx=0;exitDy=0;" edge="1" parent="th8J_0gVv6HCJu3RjYva-56" source="th8J_0gVv6HCJu3RjYva-66" target="th8J_0gVv6HCJu3RjYva-57">
          <mxGeometry width="160" relative="1" as="geometry">
            <mxPoint x="180" y="65" as="sourcePoint" />
            <mxPoint x="242.9999999999983" y="200" as="targetPoint" />
          </mxGeometry>
        </mxCell>
        <mxCell id="th8J_0gVv6HCJu3RjYva-64" value="Choose option &quot;Film menu&quot;" style="ellipse;whiteSpace=wrap;html=1;" vertex="1" parent="th8J_0gVv6HCJu3RjYva-56">
          <mxGeometry x="310" y="37.5" width="80" height="55" as="geometry" />
        </mxCell>
        <mxCell id="th8J_0gVv6HCJu3RjYva-66" value="Choose option &quot;edit film&quot;" style="ellipse;whiteSpace=wrap;html=1;" vertex="1" parent="th8J_0gVv6HCJu3RjYva-56">
          <mxGeometry x="160" y="37.5" width="80" height="55" as="geometry" />
        </mxCell>
        <mxCell id="th8J_0gVv6HCJu3RjYva-67" value="&amp;lt;&amp;lt;include&amp;gt;&amp;gt;" style="html=1;verticalAlign=bottom;labelBackgroundColor=none;endArrow=open;endFill=0;dashed=1;rounded=0;entryX=1;entryY=0.5;entryDx=0;entryDy=0;exitX=0;exitY=0.5;exitDx=0;exitDy=0;" edge="1" parent="th8J_0gVv6HCJu3RjYva-56" source="th8J_0gVv6HCJu3RjYva-64" target="th8J_0gVv6HCJu3RjYva-66">
          <mxGeometry width="160" relative="1" as="geometry">
            <mxPoint x="470" y="75" as="sourcePoint" />
            <mxPoint x="400" y="75" as="targetPoint" />
          </mxGeometry>
        </mxCell>
        <mxCell id="th8J_0gVv6HCJu3RjYva-105" value="edit title" style="ellipse;whiteSpace=wrap;html=1;" vertex="1" parent="th8J_0gVv6HCJu3RjYva-56">
          <mxGeometry x="3" y="165" width="80" height="55" as="geometry" />
        </mxCell>
        <mxCell id="th8J_0gVv6HCJu3RjYva-80" value="" style="endArrow=block;endSize=16;endFill=0;html=1;rounded=0;entryX=0.5;entryY=1;entryDx=0;entryDy=0;exitX=0.5;exitY=0;exitDx=0;exitDy=0;" edge="1" parent="th8J_0gVv6HCJu3RjYva-56" source="th8J_0gVv6HCJu3RjYva-105" target="th8J_0gVv6HCJu3RjYva-57">
          <mxGeometry width="160" relative="1" as="geometry">
            <mxPoint x="50" y="140" as="sourcePoint" />
            <mxPoint x="400" y="210" as="targetPoint" />
          </mxGeometry>
        </mxCell>
        <mxCell id="th8J_0gVv6HCJu3RjYva-106" value="edit actors" style="ellipse;whiteSpace=wrap;html=1;" vertex="1" parent="th8J_0gVv6HCJu3RjYva-56">
          <mxGeometry x="90" y="185" width="80" height="55" as="geometry" />
        </mxCell>
        <mxCell id="th8J_0gVv6HCJu3RjYva-107" value="" style="endArrow=block;endSize=16;endFill=0;html=1;rounded=0;entryX=0.753;entryY=0.94;entryDx=0;entryDy=0;exitX=0.5;exitY=0;exitDx=0;exitDy=0;entryPerimeter=0;" edge="1" parent="th8J_0gVv6HCJu3RjYva-56" source="th8J_0gVv6HCJu3RjYva-106" target="th8J_0gVv6HCJu3RjYva-57">
          <mxGeometry width="160" relative="1" as="geometry">
            <mxPoint x="150" y="140" as="sourcePoint" />
            <mxPoint x="150" y="90" as="targetPoint" />
          </mxGeometry>
        </mxCell>
        <mxCell id="th8J_0gVv6HCJu3RjYva-108" value="edit duration" style="ellipse;whiteSpace=wrap;html=1;" vertex="1" parent="th8J_0gVv6HCJu3RjYva-56">
          <mxGeometry x="190" y="165" width="80" height="55" as="geometry" />
        </mxCell>
        <mxCell id="th8J_0gVv6HCJu3RjYva-109" value="" style="endArrow=block;endSize=16;endFill=0;html=1;rounded=0;exitX=0.5;exitY=0;exitDx=0;exitDy=0;" edge="1" parent="th8J_0gVv6HCJu3RjYva-56" source="th8J_0gVv6HCJu3RjYva-108" target="th8J_0gVv6HCJu3RjYva-57">
          <mxGeometry width="160" relative="1" as="geometry">
            <mxPoint x="240" y="145" as="sourcePoint" />
            <mxPoint x="240" y="95" as="targetPoint" />
          </mxGeometry>
        </mxCell>
        <mxCell id="th8J_0gVv6HCJu3RjYva-110" value="&amp;lt;&amp;lt;include&amp;gt;&amp;gt;" style="html=1;verticalAlign=bottom;labelBackgroundColor=none;endArrow=open;endFill=0;dashed=1;rounded=0;entryX=0.5;entryY=1;entryDx=0;entryDy=0;exitX=0.5;exitY=0;exitDx=0;exitDy=0;" edge="1" parent="th8J_0gVv6HCJu3RjYva-56" source="th8J_0gVv6HCJu3RjYva-111" target="th8J_0gVv6HCJu3RjYva-105">
          <mxGeometry width="160" relative="1" as="geometry">
            <mxPoint x="40" y="280" as="sourcePoint" />
            <mxPoint x="40" y="310" as="targetPoint" />
          </mxGeometry>
        </mxCell>
        <mxCell id="th8J_0gVv6HCJu3RjYva-111" value="fill in new title" style="ellipse;whiteSpace=wrap;html=1;" vertex="1" parent="th8J_0gVv6HCJu3RjYva-56">
          <mxGeometry x="3" y="280" width="80" height="55" as="geometry" />
        </mxCell>
        <mxCell id="th8J_0gVv6HCJu3RjYva-112" value="&amp;lt;&amp;lt;include&amp;gt;&amp;gt;" style="html=1;verticalAlign=bottom;labelBackgroundColor=none;endArrow=open;endFill=0;dashed=1;rounded=0;entryX=0.559;entryY=1.025;entryDx=0;entryDy=0;exitX=0.5;exitY=0;exitDx=0;exitDy=0;entryPerimeter=0;" edge="1" parent="th8J_0gVv6HCJu3RjYva-56" source="th8J_0gVv6HCJu3RjYva-113" target="th8J_0gVv6HCJu3RjYva-106">
          <mxGeometry width="160" relative="1" as="geometry">
            <mxPoint x="147" y="300" as="sourcePoint" />
            <mxPoint x="150" y="240" as="targetPoint" />
          </mxGeometry>
        </mxCell>
        <mxCell id="th8J_0gVv6HCJu3RjYva-113" value="fill in actors" style="ellipse;whiteSpace=wrap;html=1;" vertex="1" parent="th8J_0gVv6HCJu3RjYva-56">
          <mxGeometry x="110" y="300" width="80" height="55" as="geometry" />
        </mxCell>
        <mxCell id="th8J_0gVv6HCJu3RjYva-114" value="&amp;lt;&amp;lt;include&amp;gt;&amp;gt;" style="html=1;verticalAlign=bottom;labelBackgroundColor=none;endArrow=open;endFill=0;dashed=1;rounded=0;entryX=0.716;entryY=0.967;entryDx=0;entryDy=0;exitX=0.5;exitY=0;exitDx=0;exitDy=0;entryPerimeter=0;" edge="1" parent="th8J_0gVv6HCJu3RjYva-56" source="th8J_0gVv6HCJu3RjYva-115" target="th8J_0gVv6HCJu3RjYva-108">
          <mxGeometry width="160" relative="1" as="geometry">
            <mxPoint x="287" y="300" as="sourcePoint" />
            <mxPoint x="290" y="240" as="targetPoint" />
          </mxGeometry>
        </mxCell>
        <mxCell id="th8J_0gVv6HCJu3RjYva-115" value="fill in duration" style="ellipse;whiteSpace=wrap;html=1;" vertex="1" parent="th8J_0gVv6HCJu3RjYva-56">
          <mxGeometry x="250" y="300" width="80" height="55" as="geometry" />
        </mxCell>
        <mxCell id="th8J_0gVv6HCJu3RjYva-117" value="Show all films" style="swimlane;whiteSpace=wrap;html=1;" vertex="1" parent="1">
          <mxGeometry x="140" y="1040" width="430" height="120" as="geometry" />
        </mxCell>
        <mxCell id="th8J_0gVv6HCJu3RjYva-118" value="Show all films" style="ellipse;whiteSpace=wrap;html=1;" vertex="1" parent="th8J_0gVv6HCJu3RjYva-117">
          <mxGeometry x="10" y="40" width="80" height="50" as="geometry" />
        </mxCell>
        <mxCell id="th8J_0gVv6HCJu3RjYva-121" value="Choose&lt;br&gt;&quot;Film menu option&quot;" style="ellipse;whiteSpace=wrap;html=1;" vertex="1" parent="th8J_0gVv6HCJu3RjYva-117">
          <mxGeometry x="325" y="35" width="90" height="60" as="geometry" />
        </mxCell>
        <mxCell id="th8J_0gVv6HCJu3RjYva-122" value="&amp;lt;&amp;lt;include&amp;gt;&amp;gt;" style="html=1;verticalAlign=bottom;labelBackgroundColor=none;endArrow=open;endFill=0;dashed=1;rounded=0;exitX=0;exitY=0.5;exitDx=0;exitDy=0;entryX=1;entryY=0.5;entryDx=0;entryDy=0;" edge="1" parent="th8J_0gVv6HCJu3RjYva-117" source="th8J_0gVv6HCJu3RjYva-121" target="th8J_0gVv6HCJu3RjYva-123">
          <mxGeometry width="160" relative="1" as="geometry">
            <mxPoint x="485" y="255" as="sourcePoint" />
            <mxPoint x="403" y="255" as="targetPoint" />
          </mxGeometry>
        </mxCell>
        <mxCell id="th8J_0gVv6HCJu3RjYva-123" value="Choose &quot;show all films options&quot;" style="ellipse;whiteSpace=wrap;html=1;" vertex="1" parent="th8J_0gVv6HCJu3RjYva-117">
          <mxGeometry x="150" y="30" width="100" height="70" as="geometry" />
        </mxCell>
        <mxCell id="th8J_0gVv6HCJu3RjYva-124" value="&amp;lt;&amp;lt;include&amp;gt;&amp;gt;" style="html=1;verticalAlign=bottom;labelBackgroundColor=none;endArrow=open;endFill=0;dashed=1;rounded=0;exitX=0;exitY=0.5;exitDx=0;exitDy=0;entryX=1;entryY=0.5;entryDx=0;entryDy=0;" edge="1" parent="th8J_0gVv6HCJu3RjYva-117" source="th8J_0gVv6HCJu3RjYva-123" target="th8J_0gVv6HCJu3RjYva-118">
          <mxGeometry width="160" relative="1" as="geometry">
            <mxPoint x="213" y="315.0000000000001" as="sourcePoint" />
            <mxPoint x="242.9999999999983" y="200" as="targetPoint" />
          </mxGeometry>
        </mxCell>
        <mxCell id="th8J_0gVv6HCJu3RjYva-126" value="Show all sessions" style="swimlane;whiteSpace=wrap;html=1;" vertex="1" parent="1">
          <mxGeometry x="140" y="1250" width="670" height="120" as="geometry" />
        </mxCell>
        <mxCell id="th8J_0gVv6HCJu3RjYva-127" value="Show all films" style="ellipse;whiteSpace=wrap;html=1;" vertex="1" parent="th8J_0gVv6HCJu3RjYva-126">
          <mxGeometry x="10" y="40" width="80" height="50" as="geometry" />
        </mxCell>
        <mxCell id="th8J_0gVv6HCJu3RjYva-128" value="Choose&lt;br&gt;&quot;Session menu option&quot;" style="ellipse;whiteSpace=wrap;html=1;" vertex="1" parent="th8J_0gVv6HCJu3RjYva-126">
          <mxGeometry x="570" y="35" width="90" height="60" as="geometry" />
        </mxCell>
        <mxCell id="th8J_0gVv6HCJu3RjYva-129" value="&amp;lt;&amp;lt;include&amp;gt;&amp;gt;" style="html=1;verticalAlign=bottom;labelBackgroundColor=none;endArrow=open;endFill=0;dashed=1;rounded=0;exitX=0;exitY=0.5;exitDx=0;exitDy=0;entryX=1;entryY=0.5;entryDx=0;entryDy=0;" edge="1" parent="th8J_0gVv6HCJu3RjYva-126" source="th8J_0gVv6HCJu3RjYva-128" target="th8J_0gVv6HCJu3RjYva-132">
          <mxGeometry width="160" relative="1" as="geometry">
            <mxPoint x="485" y="255" as="sourcePoint" />
            <mxPoint x="540" y="65" as="targetPoint" />
          </mxGeometry>
        </mxCell>
        <mxCell id="th8J_0gVv6HCJu3RjYva-130" value="Choose &quot;show all sessions option&quot;" style="ellipse;whiteSpace=wrap;html=1;" vertex="1" parent="th8J_0gVv6HCJu3RjYva-126">
          <mxGeometry x="150" y="30" width="100" height="70" as="geometry" />
        </mxCell>
        <mxCell id="th8J_0gVv6HCJu3RjYva-131" value="&amp;lt;&amp;lt;include&amp;gt;&amp;gt;" style="html=1;verticalAlign=bottom;labelBackgroundColor=none;endArrow=open;endFill=0;dashed=1;rounded=0;exitX=0;exitY=0.5;exitDx=0;exitDy=0;entryX=1;entryY=0.5;entryDx=0;entryDy=0;" edge="1" parent="th8J_0gVv6HCJu3RjYva-126" source="th8J_0gVv6HCJu3RjYva-130" target="th8J_0gVv6HCJu3RjYva-127">
          <mxGeometry width="160" relative="1" as="geometry">
            <mxPoint x="213" y="315.0000000000001" as="sourcePoint" />
            <mxPoint x="242.9999999999983" y="200" as="targetPoint" />
          </mxGeometry>
        </mxCell>
        <mxCell id="th8J_0gVv6HCJu3RjYva-132" value="Choose film" style="ellipse;whiteSpace=wrap;html=1;" vertex="1" parent="th8J_0gVv6HCJu3RjYva-126">
          <mxGeometry x="370" y="35" width="90" height="60" as="geometry" />
        </mxCell>
        <mxCell id="th8J_0gVv6HCJu3RjYva-133" value="&amp;lt;&amp;lt;include&amp;gt;&amp;gt;" style="html=1;verticalAlign=bottom;labelBackgroundColor=none;endArrow=open;endFill=0;dashed=1;rounded=0;exitX=0;exitY=0.5;exitDx=0;exitDy=0;entryX=1;entryY=0.5;entryDx=0;entryDy=0;" edge="1" parent="th8J_0gVv6HCJu3RjYva-126" source="th8J_0gVv6HCJu3RjYva-132" target="th8J_0gVv6HCJu3RjYva-130">
          <mxGeometry width="160" relative="1" as="geometry">
            <mxPoint x="660" y="75" as="sourcePoint" />
            <mxPoint x="550" y="75" as="targetPoint" />
          </mxGeometry>
        </mxCell>
        <mxCell id="th8J_0gVv6HCJu3RjYva-135" value="Delete film" style="swimlane;whiteSpace=wrap;html=1;" vertex="1" parent="1">
          <mxGeometry x="-560" y="1030" width="430" height="120" as="geometry" />
        </mxCell>
        <mxCell id="th8J_0gVv6HCJu3RjYva-136" value="Delete&lt;br&gt;film" style="ellipse;whiteSpace=wrap;html=1;" vertex="1" parent="th8J_0gVv6HCJu3RjYva-135">
          <mxGeometry x="10" y="40" width="80" height="50" as="geometry" />
        </mxCell>
        <mxCell id="th8J_0gVv6HCJu3RjYva-137" value="Choose&lt;br&gt;&quot;Film menu option&quot;" style="ellipse;whiteSpace=wrap;html=1;" vertex="1" parent="th8J_0gVv6HCJu3RjYva-135">
          <mxGeometry x="325" y="35" width="90" height="60" as="geometry" />
        </mxCell>
        <mxCell id="th8J_0gVv6HCJu3RjYva-138" value="&amp;lt;&amp;lt;include&amp;gt;&amp;gt;" style="html=1;verticalAlign=bottom;labelBackgroundColor=none;endArrow=open;endFill=0;dashed=1;rounded=0;exitX=0;exitY=0.5;exitDx=0;exitDy=0;entryX=1;entryY=0.5;entryDx=0;entryDy=0;" edge="1" parent="th8J_0gVv6HCJu3RjYva-135" source="th8J_0gVv6HCJu3RjYva-137" target="th8J_0gVv6HCJu3RjYva-139">
          <mxGeometry width="160" relative="1" as="geometry">
            <mxPoint x="485" y="255" as="sourcePoint" />
            <mxPoint x="403" y="255" as="targetPoint" />
          </mxGeometry>
        </mxCell>
        <mxCell id="th8J_0gVv6HCJu3RjYva-139" value="Choose &quot;delete films option&quot;" style="ellipse;whiteSpace=wrap;html=1;" vertex="1" parent="th8J_0gVv6HCJu3RjYva-135">
          <mxGeometry x="150" y="30" width="100" height="70" as="geometry" />
        </mxCell>
        <mxCell id="th8J_0gVv6HCJu3RjYva-140" value="&amp;lt;&amp;lt;include&amp;gt;&amp;gt;" style="html=1;verticalAlign=bottom;labelBackgroundColor=none;endArrow=open;endFill=0;dashed=1;rounded=0;exitX=0;exitY=0.5;exitDx=0;exitDy=0;entryX=1;entryY=0.5;entryDx=0;entryDy=0;" edge="1" parent="th8J_0gVv6HCJu3RjYva-135" source="th8J_0gVv6HCJu3RjYva-139" target="th8J_0gVv6HCJu3RjYva-136">
          <mxGeometry width="160" relative="1" as="geometry">
            <mxPoint x="213" y="315.0000000000001" as="sourcePoint" />
            <mxPoint x="242.9999999999983" y="200" as="targetPoint" />
          </mxGeometry>
        </mxCell>
        <mxCell id="th8J_0gVv6HCJu3RjYva-141" value="Delete session" style="swimlane;whiteSpace=wrap;html=1;" vertex="1" parent="1">
          <mxGeometry x="-720" y="1260" width="670" height="120" as="geometry" />
        </mxCell>
        <mxCell id="th8J_0gVv6HCJu3RjYva-142" value="delete session" style="ellipse;whiteSpace=wrap;html=1;" vertex="1" parent="th8J_0gVv6HCJu3RjYva-141">
          <mxGeometry x="10" y="40" width="80" height="50" as="geometry" />
        </mxCell>
        <mxCell id="th8J_0gVv6HCJu3RjYva-143" value="Choose&lt;br&gt;&quot;Session menu option&quot;" style="ellipse;whiteSpace=wrap;html=1;" vertex="1" parent="th8J_0gVv6HCJu3RjYva-141">
          <mxGeometry x="570" y="35" width="90" height="60" as="geometry" />
        </mxCell>
        <mxCell id="th8J_0gVv6HCJu3RjYva-144" value="&amp;lt;&amp;lt;include&amp;gt;&amp;gt;" style="html=1;verticalAlign=bottom;labelBackgroundColor=none;endArrow=open;endFill=0;dashed=1;rounded=0;exitX=0;exitY=0.5;exitDx=0;exitDy=0;entryX=1;entryY=0.5;entryDx=0;entryDy=0;" edge="1" parent="th8J_0gVv6HCJu3RjYva-141" source="th8J_0gVv6HCJu3RjYva-143" target="th8J_0gVv6HCJu3RjYva-147">
          <mxGeometry width="160" relative="1" as="geometry">
            <mxPoint x="485" y="255" as="sourcePoint" />
            <mxPoint x="540" y="65" as="targetPoint" />
          </mxGeometry>
        </mxCell>
        <mxCell id="th8J_0gVv6HCJu3RjYva-145" value="Choose &quot;delete session option&quot;" style="ellipse;whiteSpace=wrap;html=1;" vertex="1" parent="th8J_0gVv6HCJu3RjYva-141">
          <mxGeometry x="150" y="30" width="100" height="70" as="geometry" />
        </mxCell>
        <mxCell id="th8J_0gVv6HCJu3RjYva-146" value="&amp;lt;&amp;lt;include&amp;gt;&amp;gt;" style="html=1;verticalAlign=bottom;labelBackgroundColor=none;endArrow=open;endFill=0;dashed=1;rounded=0;exitX=0;exitY=0.5;exitDx=0;exitDy=0;entryX=1;entryY=0.5;entryDx=0;entryDy=0;" edge="1" parent="th8J_0gVv6HCJu3RjYva-141" source="th8J_0gVv6HCJu3RjYva-145" target="th8J_0gVv6HCJu3RjYva-142">
          <mxGeometry width="160" relative="1" as="geometry">
            <mxPoint x="213" y="315.0000000000001" as="sourcePoint" />
            <mxPoint x="242.9999999999983" y="200" as="targetPoint" />
          </mxGeometry>
        </mxCell>
        <mxCell id="th8J_0gVv6HCJu3RjYva-147" value="Choose film" style="ellipse;whiteSpace=wrap;html=1;" vertex="1" parent="th8J_0gVv6HCJu3RjYva-141">
          <mxGeometry x="370" y="35" width="90" height="60" as="geometry" />
        </mxCell>
        <mxCell id="th8J_0gVv6HCJu3RjYva-148" value="&amp;lt;&amp;lt;include&amp;gt;&amp;gt;" style="html=1;verticalAlign=bottom;labelBackgroundColor=none;endArrow=open;endFill=0;dashed=1;rounded=0;exitX=0;exitY=0.5;exitDx=0;exitDy=0;entryX=1;entryY=0.5;entryDx=0;entryDy=0;" edge="1" parent="th8J_0gVv6HCJu3RjYva-141" source="th8J_0gVv6HCJu3RjYva-147" target="th8J_0gVv6HCJu3RjYva-145">
          <mxGeometry width="160" relative="1" as="geometry">
            <mxPoint x="660" y="75" as="sourcePoint" />
            <mxPoint x="550" y="75" as="targetPoint" />
          </mxGeometry>
        </mxCell>
      </root>
    </mxGraphModel>
  </diagram>
</mxfile>
